PathFileType	4	(X/Y/Z)	/Users/itak/Documents/Research/Walk-IL/dataset/trc/00069_00006.trc
DataRate	CameraRate	NumFrames	NumMarkers	Units	OrigDataRate	OrigDataStartFrame	OrigNumFrames
100.000000	100.000000	4	53	mm	100.000000	191	765
Frame#	Time	RPSI			LPSI			L3			STRN			T10			C7			CLAV			RBAK			LBAK			LSHO			LUPA			LAEL			LAOL			LWTS			LWPS			LFRA			LIFD			LHPS			LHTS			RSHO			RUPA			RAEL			RAOL			RWTS			RWPS			RFRA			RIFD			RHTS			RHPS			RBHD			LFHD			RFHD			LBHD			LHIP			RHIP			RASI			LASI			LKNE			LTHI			LANK			LTIP			LTOE			LMT1			LMT5			LHEE			RKNE			RTHI			RANK			RTIP			RTOE			RMT1			RMT5			RHEE			
		X1	Y1	Z1	X2	Y2	Z2	X3	Y3	Z3	X4	Y4	Z4	X5	Y5	Z5	X6	Y6	Z6	X7	Y7	Z7	X8	Y8	Z8	X9	Y9	Z9	X10	Y10	Z10	X11	Y11	Z11	X12	Y12	Z12	X13	Y13	Z13	X14	Y14	Z14	X15	Y15	Z15	X16	Y16	Z16	X17	Y17	Z17	X18	Y18	Z18	X19	Y19	Z19	X20	Y20	Z20	X21	Y21	Z21	X22	Y22	Z22	X23	Y23	Z23	X24	Y24	Z24	X25	Y25	Z25	X26	Y26	Z26	X27	Y27	Z27	X28	Y28	Z28	X29	Y29	Z29	X30	Y30	Z30	X31	Y31	Z31	X32	Y32	Z32	X33	Y33	Z33	X34	Y34	Z34	X35	Y35	Z35	X36	Y36	Z36	X37	Y37	Z37	X38	Y38	Z38	X39	Y39	Z39	X40	Y40	Z40	X41	Y41	Z41	X42	Y42	Z42	X43	Y43	Z43	X44	Y44	Z44	X45	Y45	Z45	X46	Y46	Z46	X47	Y47	Z47	X48	Y48	Z48	X49	Y49	Z49	X50	Y50	Z50	X51	Y51	Z51	X52	Y52	Z52	X53	Y53	Z53	

192	1.91	-113.9062347412109	1025.236083984375	902.8721313476562	-210.6470489501953	1010.783996582031	1047.858276367188	-165.5870666503906	1079.65380859375	973.2015380859375	-373.5677185058594	1274.927124023438	821.0703735351562	-154.3484497070312	1213.728271484375	978.3049926757812	-203.1029357910156	1479.443237304688	940.4989624023438	-349.2900390625	1389.7734375	837.6005249023438	-109.2177810668945	1339.682739257812	917.6927490234375	-241.3883209228516	1444.263671875	1035.01220703125	-365.7266845703125	1450.2646484375	1038.685180664062	-387.9916076660156	1330.586791992188	1123.504516601562	-404.6526794433594	1118.002197265625	1153.891723632812	-308.3622131347656	1102.379028320312	1108.626220703125	-452.8790893554688	871.3175659179688	1073.865600585938	-428.1473999023438	866.3544921875	1153.856567382812	-423.3912048339844	1008.46728515625	1160.2138671875	-446.6683349609375	686.9869384765625	1060.521728515625	-452.9290466308594	782.8419189453125	1140.092651367188	-473.1976318359375	788.4605102539062	1072.218872070312	-153.1963958740234	1440.045532226562	762.9124755859375	-106.4886245727539	1371.953002929688	718.612060546875	-64.10971832275391	1108.929443359375	698.926513671875	-138.9788055419922	1083.05029296875	760.168701171875	-220.6548309326172	877.5767822265625	612.370849609375	-137.14990234375	853.0715942382812	616.48193359375	-73.99939727783203	1028.5634765625	677.1663818359375	-253.4960632324219	693.6641235351562	623.12158203125	-249.6049346923828	777.6099853515625	589.2634887695312	-172.6136016845703	767.82275390625	585.5792236328125	-322.0482482910156	1663.64892578125	954.7319946289062	-264.89501953125	1680.579956054688	746.7951049804688	-382.5740051269531	1698.556518554688	789.9400634765625	-198.9333801269531	1637.753784179688	898.9392700195312	-352.7056274414062	953.319580078125	1056.98291015625	-118.3341445922852	949.499755859375	803.7975463867188	-231.3470916748047	967.4815063476562	743.3068237304688	-404.4470520019531	964.6093139648438	946.40185546875	-518.3113403320312	519.3931274414062	896.3781127929688	-479.9293212890625	655.250244140625	967.6591186523438	-276.9223937988281	196.537109375	1182.29150390625	-400.5278625488281	346.4750671386719	1056.375	-409.2535095214844	85.39966583251953	1081.1748046875	-344.2392578125	103.6867523193359	1061.6201171875	-363.0444946289062	131.5197296142578	1168.229858398438	-195.5137634277344	220.4589385986328	1146.852416992188	-262.5007019042969	507.01416015625	817.1748657226562	-202.2900695800781	769.2021484375	762.722412109375	-268.8330383300781	40.04697036743164	943.2938842773438	-265.2005310058594	382.3055114746094	842.82080078125	-457.8951110839844	44.10477447509766	833.770263671875	-437.6758422851562	51.86872482299805	902.6082153320312	-353.4152526855469	47.50471878051758	852.0014038085938	-269.9497375488281	45.86674499511719	1015.892272949219	
193	1.92	-118.995979309082	1025.152465820312	900.164794921875	-218.3527984619141	1010.792114257812	1043.469604492188	-171.7122955322266	1079.731323242188	969.48974609375	-377.1764221191406	1275.099487304688	814.2523803710938	-160.2448577880859	1213.80224609375	974.4952392578125	-208.1297454833984	1479.572387695312	935.9004516601562	-353.1290283203125	1389.9345703125	831.1007690429688	-114.1631011962891	1339.739013671875	914.3494262695312	-247.8189239501953	1444.396850585938	1029.874389648438	-372.0983581542969	1450.4267578125	1031.984985351562	-395.4132995605469	1330.834350585938	1116.645874023438	-412.1285400390625	1118.153198242188	1146.856201171875	-314.9774169921875	1102.827392578125	1103.20947265625	-458.2141723632812	871.280517578125	1066.194946289062	-435.0278930664062	866.4214477539062	1146.690673828125	-430.6898803710938	1008.593505859375	1152.859130859375	-451.0964965820312	686.9718627929688	1053.057250976562	-459.1865539550781	782.821044921875	1132.479125976562	-478.1496276855469	788.3173828125	1064.22998046875	-156.0616912841797	1440.079345703125	758.9276733398438	-108.7613906860352	1371.9462890625	715.2152099609375	-67.00026702880859	1108.497436523438	696.0914306640625	-142.7261810302734	1083.068115234375	756.4107055664062	-224.64599609375	878.70849609375	607.2636108398438	-141.5814819335938	853.2205810546875	612.60986328125	-77.29212188720703	1028.077026367188	674.1779174804688	-259.8554077148438	695.1767578125	617.6043090820312	-254.4403839111328	779.0802612304688	583.7685546875	-177.5176239013672	768.3779296875	581.227783203125	-327.0071716308594	1663.813598632812	948.619873046875	-267.6806030273438	1680.651000976562	741.291015625	-385.7818298339844	1698.717163085938	783.1874389648438	-203.3637390136719	1637.84521484375	894.1240844726562	-360.8022155761719	953.763916015625	1050.004760742188	-121.7791213989258	949.3716430664062	801.1318359375	-233.5904083251953	967.2933349609375	738.674072265625	-410.4780578613281	965.2274780273438	938.5211181640625	-526.6002807617188	523.4181518554688	879.7119140625	-488.8891296386719	657.8515625	953.6083374023438	-304.1652221679688	187.4433135986328	1165.654541015625	-418.8621215820312	343.8742370605469	1039.574096679688	-436.4989624023438	83.96738433837891	1056.804931640625	-370.1095581054688	100.2465133666992	1040.171997070312	-391.952392578125	126.1474761962891	1146.690673828125	-220.5942230224609	209.3608703613281	1133.886596679688	-263.2786560058594	506.57568359375	815.5029296875	-204.3953094482422	768.7603149414062	759.989501953125	-268.9095153808594	40.14796447753906	943.3328857421875	-265.807373046875	382.1039428710938	841.9291381835938	-458.1139526367188	43.90844345092773	833.9661865234375	-437.876953125	51.68728256225586	902.6159057617188	-353.5236206054688	47.42752838134766	852.0308837890625	-270.0597229003906	46.01094436645508	1015.920715332031	
194	1.93	-124.103385925293	1024.9853515625	897.4772338867188	-226.0962982177734	1010.766906738281	1039.03173828125	-177.859619140625	1079.753540039062	965.8145141601562	-380.7462463378906	1275.192138671875	807.3848876953125	-166.1789245605469	1213.80419921875	970.6412963867188	-213.1492614746094	1479.640625	931.2376098632812	-356.9346618652344	1390.015014648438	824.544921875	-119.1226119995117	1339.74560546875	910.9722900390625	-254.2443389892578	1444.487670898438	1024.649291992188	-378.4765319824219	1450.521362304688	1025.180419921875	-402.8239135742188	1331.029174804688	1109.680053710938	-419.5845947265625	1118.263061523438	1139.752807617188	-321.6093444824219	1103.216552734375	1097.707641601562	-463.581787109375	871.2139282226562	1058.491943359375	-441.8716735839844	866.4456787109375	1139.420776367188	-437.9700927734375	1008.663818359375	1145.448120117188	-455.7109069824219	686.9373168945312	1045.513549804688	-465.4972534179688	782.7752685546875	1124.78759765625	-483.1963806152344	788.1652221679688	1056.195190429688	-158.9370269775391	1440.017578125	754.9095458984375	-111.0556182861328	1371.834838867188	711.7906494140625	-69.86020660400391	1107.9853515625	693.2499389648438	-146.3831787109375	1083.001342773438	752.7001342773438	-228.5951690673828	879.73974609375	602.300537109375	-145.9626007080078	853.296875	608.764404296875	-80.53483581542969	1027.512573242188	671.189697265625	-266.1026000976562	696.610107421875	612.2254638671875	-259.2313232421875	780.4574584960938	578.4327392578125	-182.3899993896484	768.8587646484375	576.9376831054688	-331.9882507324219	1663.894409179688	942.4575805664062	-270.4751586914062	1680.652587890625	735.76513671875	-388.9841918945312	1698.804931640625	776.3966674804688	-207.7751312255859	1637.848022460938	889.2499389648438	-368.9111022949219	954.17919921875	1042.9130859375	-125.2274398803711	949.171875	798.5042114257812	-235.7005767822266	967.01513671875	734.0582885742188	-416.4291076660156	965.7999267578125	930.5554809570312	-534.1718139648438	527.2352905273438	863.4140625	-497.2784423828125	660.3071899414062	939.7488403320312	-331.3479614257812	177.7070465087891	1147.482666015625	-436.8343200683594	340.7621459960938	1022.085205078125	-462.67431640625	82.33821868896484	1030.50732421875	-395.1200866699219	96.69818878173828	1016.981201171875	-420.3177185058594	120.2647399902344	1123.266479492188	-245.8296508789062	197.7221832275391	1119.653564453125	-264.1712341308594	506.1438598632812	813.8258666992188	-206.5511016845703	768.3003540039062	757.2409057617188	-268.9809875488281	40.26414108276367	943.3689575195312	-266.48779296875	381.890869140625	841.0164794921875	-458.3658447265625	43.75217437744141	834.1485595703125	-438.0825805664062	51.49201965332031	902.624267578125	-353.6240234375	47.36763000488281	852.0568237304688	-270.1742553710938	46.14164352416992	1015.957641601562	
195	1.94	-129.2407836914062	1024.73974609375	894.7945556640625	-233.8856353759766	1010.711364746094	1034.532104492188	-184.0154571533203	1079.722900390625	962.1602783203125	-384.2777404785156	1275.203369140625	800.4664306640625	-172.1499328613281	1213.736083984375	966.7255249023438	-218.1751403808594	1479.641723632812	926.502685546875	-360.7068481445312	1390.014038085938	817.9342651367188	-124.099494934082	1339.698120117188	907.560302734375	-260.6729736328125	1444.531372070312	1019.331909179688	-384.8664245605469	1450.55078125	1018.264038085938	-410.2272338867188	1331.173217773438	1102.603759765625	-427.014404296875	1118.330932617188	1132.577270507812	-328.2760620117188	1103.546997070312	1092.095703125	-468.9967651367188	871.1160888671875	1050.765258789062	-448.6834106445312	866.4290771484375	1132.05615234375	-445.224609375	1008.681457519531	1137.987426757812	-460.4949645996094	686.8765869140625	1037.9091796875	-471.8518371582031	782.7029418945312	1117.02685546875	-488.345703125	787.999267578125	1048.132080078125	-161.8162384033203	1439.863403320312	750.8577880859375	-113.3737411499023	1371.621337890625	708.336669921875	-72.69657897949219	1107.396484375	690.41015625	-149.9625244140625	1082.850830078125	749.0416259765625	-232.5125732421875	880.6754760742188	597.48046875	-150.2942504882812	853.3124389648438	604.9339599609375	-83.72849273681641	1026.876586914062	668.2041625976562	-272.2156982421875	697.9647827148438	606.9675903320312	-263.9809875488281	781.7445068359375	573.2459106445312	-187.22998046875	769.2779541015625	572.6837768554688	-336.9941101074219	1663.889038085938	936.2360229492188	-273.2887268066406	1680.583129882812	730.2077026367188	-392.1903991699219	1698.811157226562	769.5625	-212.1726684570312	1637.763793945312	884.3143920898438	-377.0177612304688	954.5550537109375	1035.698608398438	-128.69580078125	948.91259765625	795.9032592773438	-237.7141418457031	966.6632080078125	729.4380493164062	-422.2963562011719	966.3141479492188	922.4890747070312	-541.0721435546875	530.7945556640625	847.5534057617188	-505.0967407226562	662.569580078125	926.1565551757812	-358.3735656738281	167.4304962158203	1127.707275390625	-454.3944091796875	337.1918640136719	1003.9111328125	-487.6293029785156	80.62110137939453	1002.303833007812	-419.1106567382812	93.14562225341797	992.0703735351562	-448.0067138671875	113.96484375	1097.929443359375	-271.1548767089844	185.6553802490234	1104.078125	-265.1797180175781	505.7239685058594	812.1334838867188	-208.7604827880859	767.8220825195312	754.4535522460938	-269.050048828125	40.39341354370117	943.4002075195312	-267.2581176757812	381.6652526855469	840.06689453125	-458.6496887207031	43.61664962768555	834.319091796875	-438.3003234863281	51.27507781982422	902.635009765625	-353.7206115722656	47.32085418701172	852.0781860351562	-270.279052734375	46.27291488647461	1016.001708984375	
